PathFileType	4	(X/Y/Z)	Walk10.trc
DataRate	CameraRate	NumFrames	NumMarkers	Units	OrigDataRate	OrigDataStartFrame	OrigNumFrames
200.000000	200.000000	7	59	mm	200.000000	369	520
Frame#	Times		LFHD		RFHD		CLAV		RACR1		RUA1		RFA1		LACR1		LUA1		LFA1		LWRU		RTH1		RTH3		LTH2		LWRR		RWRR		LCAR		RElbow		RBack		RTB3		RCAR		LTH3		RTB1		LLFC		RWRU		RTB4		T10		RASI		C7		LTH4		LBHD		LASI		STRN		RBHD		RPSI		LTB2		LTH1		RTH2		LTB4		LToe		LTB1		LElbowM		LMMAL		RTH4		LElbow		RToe		LTB3		LCAL		LMT1		RElbowM		LMT5		RMT1		RTB2		LPSI		LLMAL		RLFC		RMT5		RCAL		RLMAL		RMMAL
			X1	Y1	Z1	X2	Y2	Z2	X3	Y3	Z3	X4	Y4	Z4	X5	Y5	Z5	X6	Y6	Z6	X7	Y7	Z7	X8	Y8	Z8	X9	Y9	Z9	X10	Y10	Z10	X11	Y11	Z11	X12	Y12	Z12	X13	Y13	Z13	X14	Y14	Z14	X15	Y15	Z15	X16	Y16	Z16	X17	Y17	Z17	X18	Y18	Z18	X19	Y19	Z19	X20	Y20	Z20	X21	Y21	Z21	X22	Y22	Z22	X23	Y23	Z23	X24	Y24	Z24	X25	Y25	Z25	X26	Y26	Z26	X27	Y27	Z27	X28	Y28	Z28	X29	Y29	Z29	X30	Y30	Z30	X31	Y31	Z31	X32	Y32	Z32	X33	Y33	Z33	X34	Y34	Z34	X35	Y35	Z35	X36	Y36	Z36	X37	Y37	Z37	X38	Y38	Z38	X39	Y39	Z39	X40	Y40	Z40	X41	Y41	Z41	X42	Y42	Z42	X43	Y43	Z43	X44	Y44	Z44	X45	Y45	Z45	X46	Y46	Z46	X47	Y47	Z47	X48	Y48	Z48	X49	Y49	Z49	X50	Y50	Z50	X51	Y51	Z51	X52	Y52	Z52	X53	Y53	Z53	X54	Y54	Z54	X55	Y55	Z55	X56	Y56	Z56	X57	Y57	Z57	X58	Y58	Z58	X59	Y59	Z59

369	1.845	185.45	1426.7	-32.032	177.82	1414.6	63.73	161.13	1175.3	1.7598	75.723	1196.4	177.79	69.821	1056.9	258.73	133.61	816.11	310.51	97.178	1203.3	-190.57	135.21	1045.2	-262.16	210.16	858.67	-304.18	249.88	755.24	-317.95	102.83	625.97	204.99	150.19	466.53	151.8	99.346	554.01	-178.43	280.21	777.47	-267.97	159.53	716.34	283.24	307.03	738.23	-312.88	69.597	928.51	289.75	-35.005	1131.3	105.56	254.37	134.26	56.48	168.08	666.09	341.14	35.91	467.79	-178.25	229.42	302.74	74.975	39.88	365.27	-146.31	115.4	716.8	340.01	238.96	216.44	65.62	-63.734	1057.2	-3.3406	161.91	804.78	147.52	18.738	1257.5	-6.26	45.781	551.61	-202.41	59.823	1347.4	-61.658	132.39	801.42	-167.04	214.79	1069.2	5.5938	50.145	1339.1	70.559	-100.39	837.5	69.139	-78.842	218.11	-130.93	55.065	636.69	-217.74	177.71	566.59	165.09	-63.065	207.82	-71.727	-79.205	25.612	-51.781	0.67677	267.66	-78.687	80.745	893.6	-234.11	-180.73	122.71	-18.264	124.5	544.54	182.43	116.37	926.49	-293.5	384.57	59.917	60.014	-119.38	146.77	-66.403	-248.75	135.57	-54.178	-125.6	34.185	-27.741	28.934	894.21	215.03	-165.65	37.19	-111.98	337.42	46.972	23.399	205.19	207.32	115.94	-117.73	844.82	-37.338	-206.91	119.29	-97.57	155.23	386.86	128.86	313.34	28.961	110.14	171.31	27.28	42.308	221.81	59.599	89.816	233.05	72.827	8.3264
370	1.85	191.66	1426.9	-31.199	184.08	1415	64.58	167.42	1175.5	2.7875	82.62	1196.4	179.07	76.919	1056.6	259.77	140.58	815.71	310.95	102.96	1203.4	-189.42	140.71	1045.1	-260.83	214.91	858.48	-303.01	254.15	754.86	-317.01	109.76	626.82	204.88	157.41	467.46	151.81	107.23	554.54	-178.38	284.76	777.02	-267.15	166.17	715.88	283.48	311.26	737.71	-312.15	76.802	928.25	290.46	-28.323	1131.5	107.16	256.56	133.34	56.428	174.75	665.54	341.29	44.629	467.73	-178.56	234.1	302.13	75.195	49.325	365.14	-147.15	122.23	716.4	340.39	242.39	215.74	65.728	-57.549	1057.5	-1.9051	168.97	804.76	147.58	25.169	1257.8	-4.8608	53.73	551.7	-202.42	66.081	1347.5	-60.686	138.25	801.94	-166.32	221.12	1069.4	6.7761	56.48	1339.3	71.544	-94.126	837.57	69.741	-71.686	220.11	-131.71	62.237	636.89	-217.51	184.61	567.67	164.73	-55.768	209.24	-72.647	-79.202	25.611	-51.905	9.0846	267.85	-79.737	85.702	893.79	-232.75	-174.96	126.4	-18.966	131.63	545.5	182.27	121.4	926.61	-292.23	385.96	56.16	59.519	-113.28	149.34	-67.25	-242.35	141.58	-54.649	-124.32	34.773	-27.836	35.951	894.1	215.78	-163.61	39.62	-112.04	338.31	44.11	23.074	208.69	207.03	116.17	-111.63	844.24	-36.792	-201.51	123.81	-98.098	161.21	387.32	129.39	313.73	27.274	110.46	171.63	27.942	42.313	222.82	59.322	89.786	234.18	72.231	8.2177
371	1.855	197.88	1427.2	-30.362	190.36	1415.3	65.433	173.71	1175.7	3.8019	89.546	1196.4	180.33	84.082	1056.5	260.79	147.61	815.4	311.37	108.79	1203.7	-188.29	146.13	1045.1	-259.51	219.54	858.32	-301.83	258.23	754.47	-316.08	116.72	627.77	204.85	164.62	468.47	151.95	115.26	555.17	-178.28	289.14	776.54	-266.35	172.85	715.51	283.71	315.29	737.15	-311.45	84.059	928.09	291.16	-21.642	1131.9	108.73	258.61	132.47	56.401	181.48	665.08	341.42	53.608	467.72	-178.87	238.7	301.54	75.49	59.09	365.09	-147.97	129.11	716.1	340.77	245.7	215.07	65.882	-51.389	1058	-0.51299	175.97	804.98	147.7	31.621	1258.1	-3.4791	61.849	551.84	-202.43	72.356	1347.6	-59.724	144.1	802.51	-165.55	227.45	1069.6	7.9831	62.822	1339.5	72.517	-87.934	837.71	70.252	-64.142	222.2	-132.48	69.486	637.12	-217.28	191.52	568.82	164.43	-48.065	210.75	-73.567	-78.948	25.645	-52.135	17.856	268.11	-80.801	90.614	894.06	-231.34	-168.71	130.15	-19.656	138.77	546.54	182.24	126.35	926.8	-290.94	387.16	52.79	59.01	-106.73	151.99	-68.1	-235.43	147.65	-55.063	-122.69	35.522	-27.974	43.008	894.08	216.52	-161.21	42.264	-112.11	339.04	41.546	22.756	212.09	206.76	116.45	-105.54	843.67	-36.335	-195.64	128.44	-98.593	167.19	387.81	129.93	314.04	25.859	110.79	171.89	28.551	42.352	223.72	59.096	89.781	235.16	71.718	8.1348
372	1.86	204.11	1427.5	-29.521	196.63	1415.7	66.287	179.98	1175.9	4.7971	96.496	1196.5	181.56	91.306	1056.5	261.78	154.68	815.18	311.78	114.67	1204.1	-187.16	151.48	1045.1	-258.21	224.06	858.19	-300.66	262.13	754.09	-315.17	123.69	628.81	204.92	171.77	469.52	152.21	123.43	555.89	-178.14	293.36	776.05	-265.58	179.57	715.23	283.91	319.14	736.55	-310.78	91.36	928.01	291.83	-14.969	1132.3	110.27	260.53	131.64	56.384	188.26	664.7	341.52	62.835	467.74	-179.18	243.2	300.96	75.847	69.148	365.13	-148.76	136.06	715.9	341.15	248.87	214.43	66.068	-45.256	1058.5	0.83096	182.9	805.42	147.89	38.084	1258.6	-2.1191	70.13	552.01	-202.43	78.643	1347.8	-58.773	149.94	803.12	-164.74	233.75	1069.9	9.205	69.168	1339.8	73.478	-81.815	837.9	70.675	-56.226	224.38	-133.23	76.806	637.4	-217.02	198.42	570.01	164.21	-39.975	212.31	-74.477	-78.357	25.723	-52.49	26.968	268.44	-81.867	95.479	894.43	-229.89	-161.98	133.93	-20.326	145.87	547.65	182.34	131.21	927.05	-289.65	388.19	49.811	58.485	-99.759	154.69	-68.948	-228.02	153.74	-55.418	-120.66	36.453	-28.167	50.102	894.13	217.23	-158.4	45.115	-112.2	339.62	39.284	22.437	215.38	206.5	116.76	-99.483	843.12	-35.966	-189.33	133.13	-99.049	173.14	388.31	130.48	314.29	24.706	111.11	172.11	29.1	42.422	224.52	58.916	89.796	236	71.283	8.0716
373	1.865	210.36	1427.9	-28.679	202.92	1416.2	67.141	186.25	1176.2	5.7674	103.46	1196.7	182.74	98.589	1056.5	262.75	161.8	815.07	312.16	120.57	1204.5	-186.05	156.75	1045.2	-256.94	228.47	858.08	-299.49	265.85	753.7	-314.28	130.65	629.9	205.09	178.81	470.59	152.58	131.73	556.71	-177.96	297.42	775.53	-264.83	186.34	715.05	284.1	322.8	735.92	-310.14	98.695	928.02	292.49	-8.31	1132.7	111.77	262.33	130.87	56.365	195.12	664.41	341.59	72.288	467.81	-179.48	247.58	300.39	76.245	79.465	365.27	-149.5	143.06	715.79	341.51	251.91	213.82	66.273	-39.151	1059.1	2.1234	189.77	806.07	148.15	44.545	1259	-0.78388	78.56	552.24	-202.44	84.94	1348	-57.833	155.78	803.76	-163.9	240.04	1070.3	10.431	75.514	1340.2	74.425	-75.767	838.15	71.012	-47.957	226.63	-133.95	84.193	637.72	-216.76	205.28	571.2	164.08	-31.521	213.94	-75.365	-77.333	25.856	-52.987	36.39	268.85	-82.919	100.3	894.87	-228.4	-154.81	137.71	-20.967	152.91	548.78	182.56	135.99	927.36	-288.35	389.07	47.215	57.946	-92.378	157.43	-69.782	-220.16	159.78	-55.709	-118.14	37.583	-28.427	57.229	894.26	217.93	-155.13	48.163	-112.3	340.08	37.32	22.115	218.56	206.25	117.1	-93.438	842.59	-35.679	-182.56	137.85	-99.462	179.02	388.82	131.03	314.49	23.795	111.42	172.29	29.585	42.519	225.24	58.777	89.825	236.7	70.919	8.0243
374	1.87	216.61	1428.2	-27.836	209.21	1416.6	67.994	192.5	1176.6	6.7076	110.44	1197	183.89	105.93	1056.6	263.68	168.97	815.04	312.53	126.51	1205.1	-184.96	161.96	1045.4	-255.71	232.77	857.99	-298.34	269.41	753.32	-313.42	137.6	631.03	205.35	185.69	471.67	153.03	140.14	557.62	-177.74	301.32	775	-264.1	193.16	714.96	284.27	326.28	735.25	-309.52	106.06	928.12	293.14	-1.6687	1133.3	113.22	264	130.14	56.337	202.04	664.2	341.64	81.943	467.95	-179.79	251.84	299.82	76.666	90.002	365.51	-150.2	150.13	715.78	341.87	254.82	213.23	66.482	-33.073	1059.7	3.3626	196.56	806.92	148.47	50.991	1259.6	0.5238	87.123	552.53	-202.43	91.241	1348.3	-56.906	161.61	804.44	-163.05	246.29	1070.7	11.651	81.86	1340.5	75.358	-69.786	838.46	71.27	-39.356	228.93	-134.63	91.641	638.1	-216.47	212.08	572.36	164.06	-22.731	215.62	-76.214	-75.776	26.056	-53.64	46.088	269.33	-83.94	105.06	895.4	-226.88	-147.21	141.47	-21.567	159.84	549.93	182.9	140.69	927.72	-287.05	389.81	44.984	57.402	-84.609	160.18	-70.586	-211.88	165.72	-55.933	-115.06	38.919	-28.766	64.383	894.46	218.6	-151.35	51.39	-112.43	340.42	35.645	21.794	221.63	206.01	117.46	-87.407	842.08	-35.469	-175.37	142.57	-99.823	184.8	389.32	131.57	314.65	23.1	111.69	172.44	30.007	42.638	225.87	58.672	89.864	237.28	70.62	7.9899
375	1.875	222.88	1428.7	-26.995	215.51	1417.1	68.843	198.73	1177	7.6129	117.42	1197.3	184.98	113.31	1056.8	264.59	176.17	815.11	312.88	132.46	1205.6	-183.89	167.1	1045.7	-254.51	236.97	857.93	-297.21	272.8	752.95	-312.59	144.5	632.17	205.7	192.38	472.71	153.57	148.65	558.63	-177.47	305.08	774.45	-263.4	200.03	714.96	284.43	329.6	734.55	-308.93	113.44	928.3	293.77	4.9503	1133.8	114.62	265.55	129.46	56.299	209.04	664.08	341.67	91.769	468.16	-180.08	255.96	299.27	77.09	100.72	365.85	-150.84	157.26	715.86	342.23	257.59	212.68	66.685	-27.023	1060.4	4.5482	203.26	807.94	148.87	57.41	1260.1	1.8017	95.801	552.89	-202.42	97.542	1348.7	-55.992	167.44	805.14	-162.19	252.51	1071.1	12.853	88.203	1340.9	76.277	-63.868	838.81	71.452	-30.449	231.27	-135.25	99.144	638.53	-216.17	218.8	573.45	164.16	-13.637	217.34	-77.008	-73.584	26.336	-54.457	56.025	269.91	-84.909	109.78	896.01	-225.33	-139.2	145.17	-22.113	166.65	551.06	183.33	145.3	928.13	-285.76	390.45	43.092	56.859	-76.476	162.94	-71.344	-203.22	171.49	-56.083	-111.34	40.457	-29.193	71.56	894.72	219.25	-147.01	54.774	-112.59	340.67	34.241	21.477	224.59	205.78	117.82	-81.384	841.61	-35.329	-167.78	147.24	-100.12	190.44	389.79	132.11	314.78	22.592	111.92	172.56	30.369	42.774	226.43	58.598	89.912	237.75	70.381	7.9665
